# xmcd
#
# Track frame offsets:
#	150
#	11485
#	24433
#	34193
#	52327
#	64099
#	75219
#	84372
#	96358
#	103532
#	114609
#	125231
#
# Disc length: 1853 seconds
#
# Revision: 0
# Processed by: cddbd v1.5.1PL2 Copyright (c) Steve Scherf et al.
# Submitted via: dBpowerAMP V4.0
#
DISCID=96073b0c
DTITLE=Charley Pride - There's A Little Bit Of Hank In Me
DYEAR=1900
DGENRE=Country
TTITLE0=There's A Little Bit Of Hank In Me
TTITLE1=My Son Call's Another Man Daddy
TTITLE2=Moanin' The Blues
TTITLE3=Mansion On The HIll
TTITLE4=Mind Your Own Business
TTITLE5=I Can't Help It (If I'm Still In Love Wtih You)
TTITLE6=Honky Tonk Blues
TTITLE7=I'm So Lonesome I Could Cry
TTITLE8=Low Down Blues
TTITLE9=I Could Never Be Ashamed Of You
TTITLE10=Why Don't You Love Me (Like You Used To)
TTITLE11=You Win Again
EXTD=
EXTT0=
EXTT1=
EXTT2=
EXTT3=
EXTT4=
EXTT5=
EXTT6=
EXTT7=
EXTT8=
EXTT9=
EXTT10=
EXTT11=
PLAYORDER=
